HIERARCHY
ROOT Hips
{
    OFFSET 12.691420555114746 82.46853256225586 -16.766559600830078
    CHANNELS 6 Xposition Yposition Zposition Zrotation Xrotation Yrotation
    JOINT RightUpLeg
    {
        OFFSET -12.691420555114746 0.0 0.0
        CHANNELS 3 Zrotation Xrotation Yrotation
        JOINT RightLeg
        {
            OFFSET 0.0 -40.5521354675293 0.0
            CHANNELS 3 Zrotation Xrotation Yrotation
            JOINT RightFoot
            {
                OFFSET 0.0 -41.91639709472656 0.0
                CHANNELS 3 Zrotation Xrotation Yrotation
                End Site
                {
                    OFFSET 0.0 0.0 16.766559600830078
                }
            }
        }
    }
    JOINT LeftUpLeg
    {
        OFFSET 12.691420555114746 0.0 0.0
        CHANNELS 3 Zrotation Xrotation Yrotation
        JOINT LeftLeg
        {
            OFFSET 0.0 -40.5521354675293 0.0
            CHANNELS 3 Zrotation Xrotation Yrotation
            JOINT LeftFoot
            {
                OFFSET 0.0 -41.91639709472656 0.0
                CHANNELS 3 Zrotation Xrotation Yrotation
                End Site
                {
                    OFFSET 0.0 0.0 16.766559600830078
                }
            }
        }
    }
    JOINT Spine
    {
        OFFSET 0.0 22.673959732055664 0.0
        CHANNELS 3 Zrotation Xrotation Yrotation
        JOINT Spine3
        {
            OFFSET 0.0 22.936477661132812 0.0
            CHANNELS 3 Zrotation Xrotation Yrotation
            JOINT Neck
            {
                OFFSET 0.0 8.204046249389648 0.0
                CHANNELS 3 Zrotation Xrotation Yrotation
                End Site
                {
                    OFFSET 0.0 3.281618595123291 0.0
                }
            }
            JOINT LeftArm
            {
                OFFSET 13.114542007446289 0.0 0.0
                CHANNELS 3 Zrotation Xrotation Yrotation
                JOINT LeftForeArm
                {
                    OFFSET 25.69754409790039 0.0 0.0
                    CHANNELS 3 Zrotation Xrotation Yrotation
                    JOINT LeftHand
                    {
                        OFFSET 18.111053466796875 0.0 0.0
                        CHANNELS 3 Zrotation Xrotation Yrotation
                        End Site
                        {
                            OFFSET 7.24442195892334 0.0 0.0
                        }
                    }
                }
            }
            JOINT RightArm
            {
                OFFSET -13.114542007446289 0.0 0.0
                CHANNELS 3 Zrotation Xrotation Yrotation
                JOINT RightForeArm
                {
                    OFFSET -25.69754409790039 0.0 0.0
                    CHANNELS 3 Zrotation Xrotation Yrotation
                    JOINT RightHand
                    {
                        OFFSET -18.111053466796875 0.0 0.0
                        CHANNELS 3 Zrotation Xrotation Yrotation
                        End Site
                        {
                            OFFSET -7.24442195892334 0.0 0.0
                        }
                    }
                }
            }
        }
    }
}
MOTION
Frames: 9
Frame Time: 0.03333333333333333
-0.00042155542178079486 62.52952194213867 -0.0011295254807919264 39.0263314836207 -8.155276384209929 75.21886945204287 4.794934429410023 -21.001019478151868 0.8141155779464948 28.3222284239716 83.7084822340968 -30.31481082820045 -1.5902773407317584e-15 -2.2069531490250793e-32 1.5902773407317584e-15 -0.03228516662138463 -17.115564085147987 -0.7287172261526648 10.817215647297088 76.81705064482618 -8.204109381384132 7.951386703658791e-16 -1.3793457181406746e-32 -1.9878466759146976e-15 1.2663037456030641 19.300835933118897 0.40324578924785826 -1.128549196243648e-06 -1.4541992866622486e-06 12.836016700091694 -1.8162345252186363 4.666516344892425 174.815581534188 122.27823309699252 -37.33163171929656 -170.8768836554085 -3.9265532251241496e-07 1.2240971178493243e-06 63.52968052807369 3.1805546814635164e-15 -3.9756933518293955e-16 1.1034765745125397e-32 -133.56025495957417 -10.977131331971929 141.7338284674926 1.5806148755913706e-08 1.850489994465114e-06 -28.29853792771607 1.9878466759146985e-16 -6.361109362927035e-15 1.1034765745125397e-32
-0.00043540631304495037 62.529544830322266 -0.0011271146358922124 39.10057325296455 -8.175706128491452 75.19949822796711 4.7975391743266345 -20.84489260853463 0.7925083163678642 27.20433559778035 83.84037796645056 -29.167594812924182 1.5902773407317584e-15 3.975693351829395e-15 -2.7829853462805768e-15 0.15429107581561405 -16.921732578114383 -0.6797053939477047 9.437887282902867 76.78740949237081 -6.987245802665576 2.3854160110976376e-15 7.95138670365879e-16 -7.156248033292914e-15 1.2957941681339102 19.321063131210497 0.40930433275862727 -9.068423373465094e-07 7.043599607467593e-07 12.817828303936842 -1.8491276970926607 4.85795557496787 174.92297614116808 122.84932461544892 -37.29219618575495 -170.60755171171573 -5.03153783940826e-06 -8.718385141366165e-07 64.70983573800669 0.0 -3.975693351829396e-16 0.0 -133.6378612459246 -10.729428287009386 142.03069695478047 1.1526706524874065e-06 7.719101039855173e-07 -28.62956720393556 -5.963540027744093e-16 6.3611093629270335e-15 -1.5902773407317584e-15
-0.00040203958633355796 62.529541015625 -0.0011086580343544483 39.130557390835726 -8.22618783003008 75.41223300502585 4.823561864961895 -20.757339915594475 0.8873347773175212 28.91724575201113 83.77079414688481 -31.131409598372855 -2.041431662848198e-31 -3.1805546814635176e-15 -7.355032700884384e-15 -0.037454690783865804 -17.033066642228764 -0.6667539767845516 10.940654418931807 77.39304251891036 -8.527944135458652 7.951386703658792e-16 -5.517382872562698e-32 -7.951386703658792e-15 1.2092621636882284 19.254353817284837 0.353860767416296 -5.8652025402728425e-08 8.306449165903555e-07 12.731257251651527 -1.539406111783931 5.169677348052617 174.885725994877 122.20229047417457 -36.78023270909013 -170.69612054888634 -3.933400185796499e-06 -6.656916407558179e-07 63.55804433021724 -1.5902773407317584e-15 -3.975693351829396e-16 -1.5902773407317584e-15 -132.89262833092607 -10.191472171894718 142.6538875791371 -2.513636287261364e-06 -2.51038232606656e-06 -29.342032150473717 -3.975693351829395e-16 -5.517382872562698e-33 1.590277340731758e-15
-0.00042261145426891744 62.52953338623047 -0.001124239875935018 39.25821230347919 -8.220317588592497 75.52162034712734 4.780462714016526 -20.621762772670298 0.8231485457977878 29.1763754536803 83.60238090959353 -31.2284936898939 -8.276074308844047e-33 -7.951386703658792e-16 -1.1927080055488188e-15 -0.0475572611783393 -16.972538296604455 -0.7034368967199085 11.225784045631153 77.32018297784553 -8.678892137081267 -7.951386703658792e-16 1.9310840053969444e-32 -2.782985346280577e-15 1.3042593460607441 19.361873433403126 0.3650957606127045 -5.767075026224669e-07 2.7181023587233245e-07 12.728017932520643 -1.5462645087676712 5.386329617771567 175.0230241942047 122.80856829078118 -36.962546208058484 -170.26747484447156 9.65738228004833e-07 -2.9101211248195606e-06 64.25463462405122 -1.5902773407317584e-15 3.975693351829396e-16 5.517382872562698e-33 -132.79021982289808 -10.233186909992593 142.85357942338183 5.230156258424924e-07 1.5774637318538445e-06 -29.72191055671555 0.0 0.0 0.0
-0.0004147219588048756 62.5295524597168 -0.001122610759921372 39.38963139022697 -8.229179654859044 75.70610498965492 4.844992525854986 -20.70840362511728 0.8441407588165656 28.3849633935049 83.98410185367456 -30.503206437068513 7.951386703658792e-16 -1.9310840053969444e-32 -2.782985346280577e-15 -0.3901641567223367 -17.2103263936542 -0.8187464915577671 12.369802850865378 77.86141525037468 -9.48569496545678 1.5902773407317584e-15 -3.975693351829396e-15 3.975693351829397e-16 1.2337696206768032 19.561525921700845 0.3970968900202975 1.3492453565876369e-06 3.645474329346514e-07 12.521749114757815 -1.5974345293318337 5.472724147241823 175.5216844617083 122.9433148759864 -36.14475234064994 -169.46654306707953 -2.281628132243841e-06 1.6885437336885755e-06 63.67482618170924 -7.951386703658792e-16 0.0 0.0 -132.26250432678475 -9.647984243757236 143.17614169497938 -1.6146196174370155e-06 9.767190669606857e-07 -30.226525073991898 3.975693351829396e-16 -6.361109362927033e-15 1.5902773407317582e-15
-0.0003985021903645247 62.529563903808594 -0.0011292140698060393 39.42038130541938 -7.935165559305556 75.91811549497045 4.825440551999914 -20.7276907371872 0.9227668980795769 28.012244233942056 84.16048112194878 -30.344152207618965 1.5902773407317584e-15 3.1805546814635168e-15 -5.168401357378215e-15 -0.5805458198797893 -17.22913612642933 -0.8051055242810962 12.034806502935739 77.95679669930463 -9.206883390520987 -1.5902773407317584e-15 -3.1805546814635168e-15 5.963540027744094e-16 1.1731461791944842 19.44461083535541 0.33533073002101876 -6.658967003531081e-07 2.263430931779443e-08 12.707576790433544 -2.2544088080345452 5.824800718471302 175.94463854474154 122.1034407581216 -37.34073953077907 -169.93329069713556 -2.201514514369129e-06 2.8400813946140605e-06 62.82860741123951 -1.5902773407317584e-15 2.2069531490250793e-32 -1.5902773407317584e-15 -131.635542020313 -8.8371549112932 143.613184439309 -1.8764244524200044e-06 -1.6101543124910683e-06 -29.83580626022464 0.0 0.0 0.0
-0.0003544841893017292 62.5295295715332 -0.0010892439167946577 39.25863395889632 -7.7834050865660895 75.87149009930079 4.7672743408377976 -20.918609088803848 0.9031092136145366 27.536132164893377 84.3360797788215 -29.801461910105104 1.5902773407317582e-15 -7.951386703658791e-16 -1.9878466759146976e-15 -0.8128570287161702 -17.611939792893047 -0.8990486612854809 14.796188243701168 78.107929728693 -11.687770813338128 7.951386703658792e-16 7.951386703658791e-16 -8.94531004161614e-15 1.0008993337223981 19.14100031321213 0.3932540893168758 -5.535903478044619e-08 -5.519011505497584e-07 13.041198292765614 -2.436212738397541 5.52686542673933 176.58374456723095 122.13640472225205 -36.53127177675349 -170.2156490057864 -7.130390881434156e-06 -1.831030904178778e-06 62.62532952438927 -7.951386703658791e-16 0.0 0.0 -131.98271672963025 -10.27527289301662 143.7657551125208 -2.5100251032014852e-06 -1.192425524612098e-06 -30.073964838439608 0.0 0.0 -1.5902773407317582e-15
-0.0004012832650914788 62.529541015625 -0.0011279258178547025 39.24314303165136 -7.621059007532888 75.69914600547189 4.624780557483565 -21.09925222031387 0.9425366167339926 24.46273465459129 84.74722306305353 -26.83087773690674 1.5902773407317582e-15 1.6552148617688095e-32 1.1927080055488186e-15 -0.6061182977828254 -17.93997665639925 -0.7806827727997837 12.822535186203819 78.47892867329585 -10.17959919089209 -3.1805546814635164e-15 -7.951386703658796e-16 1.51076347369517e-14 1.3561064031306216 19.19945070748423 0.2017795895844122 4.859550277263015e-07 6.121670315157623e-07 13.219571206396008 -3.8941969832391705 5.38721254271077 176.34236536488586 120.98064759229803 -35.60352743067705 -171.20723816201638 -4.014638002539212e-07 1.6790392854689848e-06 64.76316326599715 7.951386703658791e-16 3.9756933518293955e-16 1.5902773407317582e-15 -131.74941792058456 -9.413231915387554 143.87460737643866 2.625512576198827e-06 1.5342186897056858e-06 -29.213666296181618 -7.951386703658792e-16 -6.3611093629270335e-15 -4.4139062980501586e-32
-0.0003786301822401583 62.52947998046875 -0.0011099826078861952 38.79960604525153 -7.439706215879519 75.50666451630755 4.800018402583595 -21.58388185984503 1.0287557478707485 22.397343820684885 84.9169227724973 -24.93262968245524 1.5902773407317584e-15 9.379550883356588e-32 6.7586786981099735e-15 -0.6691235768594267 -18.287376801573775 -0.81503673235857 14.88707589161751 78.13322042540705 -12.13830418681076 4.4139062980501586e-32 3.1805546814635168e-15 -1.5902773407317584e-15 1.1429848872485915 18.312580865760616 0.25929554035068636 -4.739989324177662e-07 9.271008091995951e-07 13.202217454127824 -3.209565956189416 5.476787899065986 175.9253885740586 121.32138203038774 -36.15815220427355 -171.78614507930493 1.4530511286874639e-06 -1.5644439286657286e-06 63.7881741702333 -7.951386703658792e-16 0.0 0.0 -131.74683392083892 -10.562297600569348 143.59266168569067 -1.624838533991743e-06 -1.7062647319569807e-06 -28.25443781733139 -9.93923337957349e-17 0.0 0.0
